<svg xmlns="http://www.w3.org/2000/svg" xmlns:xlink="http://www.w3.org/1999/xlink" viewBox="0 0 1920 1080"><defs><style>.cls-1{fill:none;}.cls-2{fill:#1f1717;}.cls-3{clip-path:url(#clip-path);}.cls-4{fill:#fcf5ed;}</style><clipPath id="clip-path"><rect class="cls-1" x="-0.71" y="387.01" width="1920.71" height="1041.72"/></clipPath></defs><g id="Layer_2" data-name="Layer 2"><g id="Layer_3" data-name="Layer 3"><rect class="cls-2" width="1920" height="1080"/></g></g><g id="Layer_1" data-name="Layer 1"><g class="cls-3"><path class="cls-4" d="M9.61,577.17H-.71v17.14H9.61Z"/><path class="cls-4" d="M-.71,663.79H27.7v-16.9H-.71Z"/><path class="cls-4" d="M-.71,698.68v52.65h11V734.2H27.24V716.55H44.76v34.2H61.6v35H44.74q-.15,8.88-.31,17.77H27.66V785.81H10.3V768.44h-11v660.29H1920v-608h-17.07v-34.3l-17.78-.83V751.33h-16.58v-35h16.58V699.22h-17.54V647.59h-52v16.58h-34.88V630h-17v33.86l-16.72.94v34.44h16.57v16.44H1728.7V665h-17.48V682h-34.47v34.61h-34.39l-.3,17.07h-34.14c-.26,6-.5,11.27-.77,17h-16.58V716.3h-35.29v51.58h-17.09V716.32l-17.75-.31V699.22h17.74l-.27-17.37h-34.45v16.57H1485.8V681.85h-52.29V716.6h-51.62v51.29h-17.62V716.6h-34.89V699.24h-16.89v17.65h-17.83v16.53l-17.43.89v17.44h-34.75V768H1208V751.33h-51.3V717h33.62v16.69H1208V699.21h-17.35V681.85H1155.8V647.6h-34.32v16.59h16.58v34.75h-33.6v17h16.24v17.37l-16.27.89v16.53h16.73v17.63h-16.93v34.35h-17.38v-16.4h-17.78V768.74h-16.59V734.13h33.35V699.21h-16.46V716.6h-52.11q-.28,8.73-.56,17.46l-16.8-.1v17.37H982.56V769h16.67v17.12h-52v16.69h-17.1V733.38H913.5V698.87h34.06V664.48H913.37v17.09H895.5V699H878.1q-.14,8.85-.29,17.73L861,716.37V699H826.84v-17.1H861q-.12-8.7-.26-17.39H843.39V647.1H825.83v17.38H808.94v17.36H774.21l-.28,17.37h16.86V733.7H773.93V751h17v16.85H756.84V733.7H739.67v35H722.16v16.6H687.57v-51H669.76V716.6H565.87q-.29,8.73-.56,17.47H548.24V716.6H530.81V734H514.14c-.31-5.56-.62-11.21-1-17.78H495.84V699.56H479.31c-.29,5.74-.55,11-.85,17.3H426.53V751.4H409.31v17H391.64V751.73H374.57v17.18H357.19v33.67H339.73V786.33l-17.45-.85V769h-33.9c-.32,5.7-.62,11-.89,16.23H270.06V768.18H253.84V716.3h16.61V699.22H252.77v-17H235.65v51.44H201.29V716H218V698.85h-17.3V681.4H148.85V647.12H114.49v52.34h17.43V716l16.47.9V734h-34v17H97.3v16.85H79.46V734H62.1V716.62L45,716.31V698.7ZM1885.45,838.81H1902v16.07h-16.53Zm-52.79-18.6H1816.6V785.75h16.09C1832.66,797.05,1832.66,808.38,1832.66,820.21Zm18.06-34.09h16.53v16.59h-16.53Zm-.27-.28-17.51-.31V769.15h17.51Zm-.58-52.63H1833.3V716.56h16.57Zm-50.7-51.16h16.76V664.44h33.9v17H1833v34.88h-33.85Zm-17.35,52.41H1798v16.31h-16.19Zm-1.5,172.89h-15.86V890.83h15.86Zm.44-69.91h-16.5v-16h16.5Zm-16.9-155h16.62V699h-16.62Zm-17.3,69h16.54v34h-16.55Zm-16.84-16.91h16.58V751.1h-16.58Zm-.32,69.42h16.54V820H1729.4ZM1711,820.1h-16.14V803.76H1711Zm17.44,34.83h-16.31V838.75h16.31ZM1625.5,751.33h16.85q0-8.7,0-17.39h34.49v17.41h17.29v16.9h34.2v17.52h-85.93v-17.3h-16.84Zm0,34.72h16.62v16.58h-16.62Zm-.17,70.08h16.3v16.16h-16.3Zm-52.09-69.47h33.88v33.49H1573.2Zm-51.87,34.6h33.57v16.43h-16.42c-.32,6.26-.61,11.55-.89,17.26h-16.26ZM1485.24,820h-16.51V803.48h16.51Zm17.51-34.57h-16.14V769.18h16.14Zm-34-69.25h51.39V750.7h-33.74V733.65h-17.63Zm-16.87,17.72h16.62v16.58h-16.62Zm-.87,52.59h17.49v16.69l-17.49-.32Zm-17,16.6h16.74v17.46H1434Zm-34.1-51.29h33.52v16.3h-33.52Zm0,69h33.85V854.8H1417c-.29-5.3-.57-10.57-.89-16.47h-16.24Zm-35,69.79h16.2V907h-16.2Zm-34.7-69.22h16.51v16h-16.51Zm-34.66-.62h16.06v16.55h-16.06ZM1278,769h16.19v16.2H1278Zm-17,87h16.19v16.29h-16.19Zm-18.85-.81h-15.86V838.71h15.86Zm-33.83-68.64h34v16.6h-34Zm-16.85,16.87H1208v33.87h-16.58Zm-34.94-34.26h33.73v16.21h-33.73Zm-17.17,52h16v16.52h-16ZM1138,768.67V785.3h-16.58V768.69Zm-17.4,103.49h-15.85V855.62h15.85Zm-16.06-51h16.31v16.16h-16.31Zm-51.92,34.57h16v16.52h-16Zm-35.69-121.44H1034V750.4h-17.08ZM1034,769v16.22h-16.29V769Zm-34.11,34.89h51.42v16.33h-16.63v17.3H1017.6v-17H999.93ZM983.09,820.8h16.62v16.58H983.09Zm-34.83.33h16.15v16.33H948.26ZM931,855.85h16.2v16.21H931Zm-105-88H809.44V751.3h16.62Zm68.87,52.18H878.36V803.44h16.57ZM878.06,717h17.05v51.17H878.06Zm0,68.56v17.63h-33.9v-34h16.45v16.39ZM809.4,716.62h51.34v16.82H843.82V751H826.33V734.14H809.39Zm-34.71,69.83h33.7V803h-33.7Zm-34.62,17.49h16.19v16.27H740.07ZM740,856h16.53v16.07H740Zm-69.65-17.26h16.28V855H670.37Zm-104.76-1.36H549V820.83h16.6Zm17.17,34.82H566.26v-16h16.5Zm51.69,17.31H618.42V873h16.05Zm.62-51.59H618.52V821.31h16.57Zm16.8,16.87h-16.5V838.22h16.53ZM601.25,751.88h50.69v33.87H601.25Zm-18,69h16.57v16.63H583.21Zm-.28-.27-17.07.05V804h17.07Zm-17.38-86.21h17.08v16.07H565.55Zm16.88,34.37v17.11H531.29V802.6H513.83V768.72ZM497,734.26h16.9l-.33,34.19H497Zm-17.84,52.41h16.53v15.86H479.15Zm-17.07,51.79h16.2v16.42H462.05Zm-18.49-69.77v34.1H427.31v-17H409.64l-.06-17.08Zm-50.81,17.36h16.58v16.58H392.75Zm-.29,87.31H409v16.11H392.49ZM358,838.54h16.41v16.28H358ZM131,889.63H114.77V873.21H131Zm52,0H166.93V873.25h16.15ZM149.2,768.83h17.13V699.55h17.06v34.38H201v17h17.11v17.13H235.2v17.83H166.54v17.23H149.2Zm-34.72,34.61h34.45v17.08H114.48ZM97.59,820.81h16.62V837.4H97.59ZM79.1,803.87v16.07H44.67V803.87H79.1Z"/><path class="cls-4" d="M1885.41,699.22V681.7H1920v86.87h-17.74V751.06h-17.13l.27.27v-35l-.27.27H1902V698.94h-16.84Z"/><path class="cls-4" d="M1920,612.21h-16.71V594.84H1920Z"/><path class="cls-4" d="M548.51,716.6V699.37h-17c-.34-6.22-.62-11.49-.94-17.37H514.35V647.61h68.91v16.82H549V681h34V664.16h17.29V647.47h16.83v34h-16.3v17.18h-35.2v18l.26-.28H548.24Z"/><path class="cls-4" d="M686.74,629.13v17.26H670.6v35.46h16.81l-.27-.28v17.82h16.77v16.92H669.78l.27.29V699.29H635.71V682.16h16.21V664.69h-16V647.22h16.23V629.39h34.88Z"/><path class="cls-4" d="M687.41,681.85V664.72H739V647.1h17.85l-.27-.28v17.84H774v17.17l.26-.26H738.89v17H721.78v-17H687.14Z"/><path class="cls-4" d="M183.94,612.31V595.09h51.42c.34-6.18.61-11.46.95-17.16h33.54v16.69H253.27v34.51h-17V612H183.66Z"/><path class="cls-4" d="M374.6,699v17.16h16.93v17.65H375.18c-.32,6.61-.59,12.27-.87,17.92l.26-.3H340.18V716.32l-.29.26h17.64V698.94l-.27.28h17.61Z"/><path class="cls-4" d="M1034.42,681.86h17.09V664.61h17.91V646.84l-.28.27h34.68v17.37l.29-.26h-17.78v17.92h-17.21v17.07l.28-.26h-34.71V681.59Z"/><path class="cls-4" d="M392.27,664.48v-16.9h51.37v51H427.27V681.55H409.36l.27.28V664.19H392Z"/><path class="cls-4" d="M1451.12,629.74h34.44v17.38h17.86l-.27-.27q0,17.5,0,35l.27-.28H1485.8l.27.28V664.73h-17.2V646.81h-17.78l.28.28v-17.6Z"/><path class="cls-4" d="M62.37,716.6V699.39H79.12c.32-6.22.59-11.48.88-17.2H96.48v33.88h17.71V734l.26-.28h-35l.27.26V716.31H62.1Z"/><path class="cls-4" d="M1555.26,681.85h34.5V664.48H1625l-.27-.27v17.61l.28-.26h-17.63v17.65l.28-.27-52.36.28c.08-5.88.18-11.77.27-17.65Z"/><path class="cls-4" d="M339.87,646.85v17.26H323V681.9H288.17l.31.27v-17.3h16.45V647.12h35.21Z"/><path class="cls-4" d="M1243.5,664.05H1260v-16.4h17v50.86h-16.5V682.12h-17Z"/><path class="cls-4" d="M1364.86,698.54h-17.29V682h-17.29V664.82h34.34v34Z"/><path class="cls-4" d="M1624.69,681.83h17.37V716.6l.26-.29h-34.73V698.94l-.27.27H1625V681.57Z"/><path class="cls-4" d="M287.8,716.32v17.3h17v16.85H270.71V716.3l-.26.28h17.63Z"/><path class="cls-4" d="M982.59,751.07H948.35V717h16.26v17h18l-.27-.28v17.64Z"/><path class="cls-4" d="M982.57,734V699.76h34.49V716.6l.26-.29H999.69V734l.27-.27H982.33Z"/><path class="cls-4" d="M495.82,664v17.24H462.26V647.52h16.45V664Z"/><path class="cls-4" d="M374.87,699.24V664.48h17.4l-.29-.26v17.64h17.63l-.26-.28V699H374.6Z"/><path class="cls-4" d="M131.79,577.3H114.65v17.35H96.86l.28.28V560.75h34.4v16.81Z"/><path class="cls-4" d="M1659.46,542.87h16.84v34h-33.63V560.5h17.06V542.58Z"/><path class="cls-4" d="M1868,559.93h-34.11V543h16.81v-17.8l-.27.27h17.29v34.7Z"/><path class="cls-4" d="M1538.16,681.85V647.12h17.34l-.26-.27v35l.25-.28h-17.62Z"/><path class="cls-4" d="M1225.67,733.93V717.1h33.93v16.55h-34.21Z"/><path class="cls-4" d="M1034.69,681.59h-34.17V665h33.89v16.9Z"/><path class="cls-4" d="M62.08,664.22V681H27.94V663.8l-.26.3q17.34.18,34.66.39Z"/><path class="cls-4" d="M1294.85,629.74h16.83v34h-16.55V629.47Z"/><path class="cls-4" d="M982.28,646.85V664.2H947.56l.29.26V646.82l-.27.28h35Z"/><path class="cls-4" d="M791.32,629.73h17.36v34.75l.27-.28H791.59V629.45Z"/><path class="cls-4" d="M184.23,663.78V647.66h33.62v16.12Z"/><path class="cls-4" d="M1347.47,646.3V630.07H1381V646.3Z"/><path class="cls-4" d="M878.41,647.09V629.73h34.7l-.25-.28v17.37H878.1Z"/><path class="cls-4" d="M774.23,629.71V595h17.33l-.27-.27v35l.27-.28H773.93Z"/><path class="cls-4" d="M547.87,629.16H514.35V612.79h33.53Z"/><path class="cls-4" d="M445,595h15.87v33.89H445Z"/><path class="cls-4" d="M1382.11,611.44v-16H1416v16Z"/><path class="cls-4" d="M495.7,612.05h-16V578.16h16Z"/><path class="cls-4" d="M844.29,542.87h15.87v33.9H844.29Z"/><path class="cls-4" d="M461.2,560.8v16.11H427.31V560.8Z"/><path class="cls-4" d="M1780.33,559.74h-16V525.86h16Z"/><path class="cls-4" d="M1121.78,542.19V526.05h33.66v16.17Z"/><path class="cls-4" d="M479.3,542V525.89h33.88V542Z"/><path class="cls-4" d="M512.92,472.91H496.86V439h16.06Z"/><path class="cls-4" d="M1225.39,733.65v17.42H1208l.28.26V733.7l-.28.26h17.67Z"/><path class="cls-4" d="M1364.54,716.6q.17-9,.31-18.05l-.26.29,17.29.4-.27-.27,0,17.63.27-.29h-17.64Z"/><path class="cls-4" d="M340.19,716.32H323.33v-17.1h16.86l-.26-.28v17.64Z"/><path class="cls-4" d="M287.81,699.22h16.84v17.1H287.8l.28.26V698.94Z"/><path class="cls-4" d="M1381.88,699.24V682.4h16.62V699h-16.89Z"/><path class="cls-4" d="M1312.49,699h-16.85V682.33h16.57v16.9Z"/><path class="cls-4" d="M1208,681.85h16.83V699H1208l.28.26V681.57Z"/><path class="cls-4" d="M340.19,699.22V682.37h17.1v16.85l.27-.28H339.89Z"/><path class="cls-4" d="M270.71,699.22V682.14h17.76l-.3-.26q-.17,8.68-.36,17.34l.27-.29H270.45Z"/><path class="cls-4" d="M1208,664.2v17.65l.26-.28h-17.63l.27.28V664.2l-.29.26h17.63Z"/><path class="cls-4" d="M1103.82,664.48h17.66l-.28-.26V681h-17.06V664.19Z"/><path class="cls-4" d="M1676.82,647.12h16.8V663.7H1677.1V646.84Z"/><path class="cls-4" d="M1625,664.48V647.64h16.62v16.58h-16.89Z"/><path class="cls-4" d="M1451.11,646.78v16.86h-16.62V647.06h16.9Z"/><path class="cls-4" d="M1399.54,663.65V647.46h16.19v16.19Z"/><path class="cls-4" d="M1208,647.1h16.83v17.1H1208l.28.26V646.82Z"/><path class="cls-4" d="M1190.93,664.2h-16.84V647.1h16.82l-.26-.28v17.66Z"/><path class="cls-4" d="M860.77,647.1h17.64l-.28-.26q.14,8.8.28,17.64l-17.64-.27.26.27V646.82Z"/><path class="cls-4" d="M62.35,664.48V647.63H79v16.59H62.08Z"/><path class="cls-4" d="M1885.47,646.17V630.31H1902v15.86Z"/><path class="cls-4" d="M1677.1,646.84h-16.85V630.21h16.57v16.91Z"/><path class="cls-4" d="M1555.5,647.12V630.26h16.62v16.58h-16.88Z"/><path class="cls-4" d="M1503.42,647.12V630.26H1520v16.58h-16.89Z"/><path class="cls-4" d="M1208,629.47V647.1l.27-.28h-17.63l.26.28V629.75h17.35Z"/><path class="cls-4" d="M1069.42,646.84h-16.85V630.21h16.57v16.9Z"/><path class="cls-4" d="M1016.71,630.12h17.34v16.06H1017V629.8Z"/><path class="cls-4" d="M982.55,647.12V629.75h17.37l-.28-.28v17.37H982.28Z"/><path class="cls-4" d="M930.22,629.73h17.36V647.1l.27-.28H930.49V629.45Z"/><path class="cls-4" d="M843.67,647.1V630.25h17.1V647.1l.26-.28H843.4Z"/><path class="cls-4" d="M756.86,647.1l0-17.63-.28.27h17.61l-.27-.27v17.37H756.59Z"/><path class="cls-4" d="M340.15,647.12V630.26h16.62v16.58h-16.9Z"/><path class="cls-4" d="M287.78,629.47v16.81H271.21V629.75h16.85Z"/><path class="cls-4" d="M114.49,646.84H97.64V630.21h16.57v16.91Z"/><path class="cls-4" d="M1451.39,629.47h-16.85V612.84h16.58v16.9Z"/><path class="cls-4" d="M1295.13,629.47h-17.36V612.1l-.28.27h17.36v17.37Z"/><path class="cls-4" d="M1208.26,629.75V612.89h16.62v16.58H1208Z"/><path class="cls-4" d="M1138.54,612.1v16.81H1122V612.37h16.85Z"/><path class="cls-4" d="M1103.58,612.68v16.25h-16.41V612.68Z"/><path class="cls-4" d="M999.92,629.75V612.94h16.81V630.1l.25-.29q-8.64-.15-17.34-.34Z"/><path class="cls-4" d="M913.11,629.73V612.87h17.11v16.86l.27-.28H912.86Z"/><path class="cls-4" d="M756.9,629.47H740.05V612.84h16.57v16.9Z"/><path class="cls-4" d="M687.17,612.37H704v16.78H686.77l.3.26q.18-8.65.39-17.31Z"/><path class="cls-4" d="M601.25,612.39H617.1v16.54H601.25Z"/><path class="cls-4" d="M374.65,612.37h16.8V629H374.92V612.1Z"/><path class="cls-4" d="M288.06,629.75V612.89h16.62v16.58h-16.9Z"/><path class="cls-4" d="M183.66,612V628.9H167V612.31h16.9Z"/><path class="cls-4" d="M45.49,612.67H61.78v16.2H45.49Z"/><path class="cls-4" d="M1780.65,595.36v16.15h-16.32V595.36Z"/><path class="cls-4" d="M1660,611.68V595.53h16.31v16.15Z"/><path class="cls-4" d="M1625.3,611.58V595.27h16.2v16.31Z"/><path class="cls-4" d="M1329.32,595.55v16.11h-16.53V595.55Z"/><path class="cls-4" d="M1277.77,612.1h-16.86V595h16.8l-.27-.27q0,8.81,0,17.64Z"/><path class="cls-4" d="M1138.81,612.37V595.51h16.62V612.1h-16.89Z"/><path class="cls-4" d="M947.61,595h16.8v16.59H947.89V594.72Z"/><path class="cls-4" d="M687.44,612.1H670.6V595.46h16.57v16.91Z"/><path class="cls-4" d="M374.92,612.1H358.1V595.46h16.55v16.91Z"/><path class="cls-4" d="M96.86,594.65v16.87H80.23V594.94H97.12Z"/><path class="cls-4" d="M1711.22,578.08v16.3H1695v-16.3Z"/><path class="cls-4" d="M1573.43,577.88h16.19v16.2h-16.19Z"/><path class="cls-4" d="M1469,594.11V578h16.53v16.1Z"/><path class="cls-4" d="M1277.71,595V578.14h16.64v16.58h-16.89Z"/><path class="cls-4" d="M1035.29,577.8h16v16.52h-16Z"/><path class="cls-4" d="M947.89,594.72H931.05V578.09h16.57V595Z"/><path class="cls-4" d="M896,594.36V578.11h16.41v16.25Z"/><path class="cls-4" d="M791.56,595V578.14h16.62v16.58H791.29Z"/><path class="cls-4" d="M131.52,577.57h16.84V594.2H131.79V577.3Z"/><path class="cls-4" d="M1867.74,560.2h16.86v16.63H1868v-16.9Z"/><path class="cls-4" d="M1798.86,577V560.73h16.41V577Z"/><path class="cls-4" d="M1729.41,577V560.73h16.39V577Z"/><path class="cls-4" d="M1433.75,560.25h16.8v16.58H1434V560Z"/><path class="cls-4" d="M1191.17,577V560.73h16.41V577Z"/><path class="cls-4" d="M1016.79,560.81v16.1h-16.53v-16.1Z"/><path class="cls-4" d="M756,577.09h-16.1V560.55H756Z"/><path class="cls-4" d="M184.18,576.79v-16.2h16.2v16.2Z"/><path class="cls-4" d="M45.31,576.94V560.78H61.63v16.16Z"/><path class="cls-4" d="M1624.05,559.9H1608.2V543.36h15.85Z"/><path class="cls-4" d="M1434,560h-16.85V543.36h16.58v16.9Z"/><path class="cls-4" d="M1329.56,542.61v16.81H1313V542.88h16.85Z"/><path class="cls-4" d="M1069.59,559.31v-16h16.51v16Z"/><path class="cls-4" d="M947.61,542.87h16.8v16.59H947.89V542.6Z"/><path class="cls-4" d="M653.3,543.05h16v16.52h-16Z"/><path class="cls-4" d="M634.47,559.71H618.41V543.18h16.06Z"/><path class="cls-4" d="M1712.1,542.18V526.05h16.31v16.13Z"/><path class="cls-4" d="M1659.73,542.6H1642.9V526h16.56v16.9Z"/><path class="cls-4" d="M1329.8,542.88V526.05h16.61v16.58h-16.85Z"/><path class="cls-4" d="M1224.72,542.53h-15.85V526h15.85Z"/><path class="cls-4" d="M1174.14,525.71h16.1v16.53h-16.1Z"/><path class="cls-4" d="M947.89,542.6H931.05V526h16.57v16.9Z"/><path class="cls-4" d="M774.86,525.68h16v16.51h-16Z"/><path class="cls-4" d="M739.54,542.12V526.05h16.53v16.07Z"/><path class="cls-4" d="M687.72,542.19V526.05H704v16.16Z"/><path class="cls-4" d="M375.42,525.76h16.2V542h-16.2Z"/><path class="cls-4" d="M340.81,525.52h15.85v16.55H340.81Z"/><path class="cls-4" d="M322.23,525.86V542H305.92V525.86Z"/><path class="cls-4" d="M10.67,525.77H26.82v16.35H10.67Z"/><path class="cls-4" d="M1850.72,525.23h-16.86v-17.1h16.81l-.28-.27.06,17.64Z"/><path class="cls-4" d="M1589.34,525h-16V508.48h16Z"/><path class="cls-4" d="M1451.84,508.43h16.29v16.2h-16.29Z"/><path class="cls-4" d="M1017.06,508.13h16.8v16.59h-16.52V507.85Z"/><path class="cls-4" d="M895.28,508.75v16h-16.5v-16Z"/><path class="cls-4" d="M843.19,508.75v16h-16.5v-16Z"/><path class="cls-4" d="M565.61,508.13h16.8v16.59h-16.5V507.85Z"/><path class="cls-4" d="M131.25,508.49v16.15H114.93V508.49Z"/><path class="cls-4" d="M1850.67,508.13V491.27h16.62v16.59h-16.9Z"/><path class="cls-4" d="M1608.15,491h16.19v16.2h-16.19Z"/><path class="cls-4" d="M1017.33,507.85h-16.85V491.22h16.58v16.91Z"/><path class="cls-4" d="M738.59,507.62h-16V491.11h16Z"/><path class="cls-4" d="M565.91,507.85H549.06V491.22h16.55v16.91Z"/><path class="cls-4" d="M287.16,507.78H271.31V491.24h15.85Z"/><path class="cls-4" d="M252.69,507.51H236.55V491.2h16.14Z"/><path class="cls-4" d="M1885.72,490.06V473.91h16.33v16.15Z"/><path class="cls-4" d="M1764.37,473.68h16.28v16.2h-16.28Z"/><path class="cls-4" d="M1451.68,490v-16.3h16.22V490Z"/><path class="cls-4" d="M1190.35,473.74v16.15H1174V473.74Z"/><path class="cls-4" d="M774.67,473.39h16.05v16.54H774.67Z"/><path class="cls-4" d="M444.73,473.65h16.14V490H444.73Z"/><path class="cls-4" d="M356.82,490.41H340.77V473.88h16.05Z"/><path class="cls-4" d="M1017,456.42v16.07h-16.53V456.42Z"/><path class="cls-4" d="M617.36,456.47v16.29H601.17V456.47Z"/><path class="cls-4" d="M1364.59,455.06V439.19h16.53v15.87Z"/><path class="cls-4" d="M965.44,455.12V439.05H982v16.1Z"/><path class="cls-4" d="M565.21,455.4H549.08V439.08h16.13Z"/><path class="cls-4" d="M1607.14,404.49v16h-16.5v-16Z"/><path class="cls-4" d="M1537.62,404.4v16.19h-16.19V404.4Z"/><path class="cls-4" d="M582.53,420.92H566.47V404.38h16.06Z"/><path class="cls-4" d="M1190.21,403.55h-16.06V387h16.06Z"/><path class="cls-4" d="M722.17,768.46H705.3v-34h16.59v34.27Z"/><path class="cls-4" d="M774.22,698.94v35H756.59v-35Z"/><path class="cls-4" d="M1069.36,768.74V751.88H1086v16.58h-16.89Z"/><path class="cls-4" d="M1537.9,698.94h17.63v17.64H1537.9Z"/><path class="cls-4" d="M1642.06,768.71V751.06h35v17.65Z"/><path class="cls-4" d="M27.37,786.08V768.43H45v17.65Z"/><path class="cls-4" d="M10,768.71V751.06H27.65v17.65Z"/><path class="cls-4" d="M878.1,681.83V664.19h17.64v17.64Z"/><path class="cls-4" d="M860.77,681.57H878.4v17.64H860.77Z"/></g></g></svg>